<svg width="115" height="32" viewBox="0 0 115 32" fill="none" xmlns="http://www.w3.org/2000/svg">
<path d="M10.3633 32C8.13902 32 6.45392 31.3597 5.30806 30.079C4.16219 28.7646 3.58926 27.1975 3.58926 25.3776V11.3744H0L0.556082 6.21801H3.58926V0.657188L9.85782 0V6.21801H15.4186V11.3744H9.85782V22.7994C9.85782 24.1474 9.92522 25.0911 10.06 25.6303C10.2285 26.1359 10.5487 26.4729 11.0205 26.6414C11.5261 26.7762 12.4192 26.8436 13.6998 26.8436H15.4186L14.8626 32H10.3633Z" fill="url(#paint0_linear_2359_140)"/>
<path d="M30.1675 32C27.2354 32 24.7246 31.4102 22.6351 30.2306C20.5793 29.0174 19.029 27.4165 17.9842 25.4281C16.9731 23.406 16.4676 21.1648 16.4676 18.7046C16.4676 16.3454 16.9563 14.1885 17.9336 12.2338C18.911 10.2791 20.3265 8.7288 22.1801 7.58294C24.0337 6.40337 26.2412 5.81359 28.8025 5.81359C31.1617 5.81359 33.1501 6.30226 34.7678 7.27962C36.4192 8.25698 37.6493 9.57135 38.4581 11.2227C39.3007 12.8741 39.722 14.7277 39.722 16.7836C39.722 17.7946 39.5871 18.9405 39.3175 20.2212H22.9889C23.326 22.4455 24.2022 24.1137 25.6177 25.2259C27.0332 26.3044 28.7351 26.8436 30.7235 26.8436C33.4534 26.8436 35.981 26.1527 38.3065 24.7709L38.6098 30.079C37.5313 30.6519 36.2675 31.1237 34.8183 31.4945C33.4028 31.8315 31.8526 32 30.1675 32ZM33.3523 15.9747C33.3523 14.6603 32.9816 13.4976 32.2401 12.4866C31.4987 11.4755 30.3528 10.97 28.8025 10.97C27.2522 10.97 26.0053 11.425 25.0616 12.3349C24.118 13.2449 23.4776 14.4581 23.1406 15.9747H33.3523Z" fill="url(#paint1_linear_2359_140)"/>
<path d="M47.9443 32C45.8548 32 44.1023 31.326 42.6868 29.9779C41.305 28.5961 40.6141 26.7425 40.6141 24.4171C40.6141 22.2264 41.4061 20.4739 42.9901 19.1596C44.5741 17.8115 46.4446 16.8678 48.6015 16.3286C50.7584 15.7557 52.8311 15.4355 54.8195 15.3681C54.7521 13.8852 54.3645 12.8236 53.6568 12.1833C52.9827 11.5429 51.8537 11.2227 50.2697 11.2227C49.1576 11.2227 48.0623 11.3744 46.9838 11.6777C45.939 11.981 44.7258 12.4697 43.344 13.1438L42.7879 8.03792C45.8548 6.55503 48.9217 5.81359 51.9885 5.81359C54.9543 5.81359 57.2123 6.62243 58.7626 8.24013C60.3466 9.85782 61.1386 12.436 61.1386 15.9747V22.7994C61.1386 24.08 61.1892 25.0068 61.2903 25.5798C61.4251 26.119 61.6273 26.4729 61.8969 26.6414C62.2002 26.7762 62.6889 26.8436 63.363 26.8436H64.1718L63.6157 32H61.3408C59.9591 32 58.7963 31.7472 57.8527 31.2417C56.909 30.7025 56.1844 29.9779 55.6789 29.0679C54.8701 29.9779 53.7579 30.7025 52.3424 31.2417C50.9606 31.7472 49.4946 32 47.9443 32ZM50.5731 27.1975C51.2134 27.1975 51.938 27.0458 52.7468 26.7425C53.5557 26.4055 54.2634 25.9505 54.8701 25.3776V19.6145C52.8479 19.7156 51.0617 20.1538 49.5114 20.9289C47.9612 21.7041 47.186 22.7825 47.186 24.1643C47.186 25.2091 47.4556 25.9842 47.9949 26.4897C48.5341 26.9616 49.3935 27.1975 50.5731 27.1975Z" fill="url(#paint2_linear_2359_140)"/>
<path d="M94.5059 5.81359C97.8761 5.81359 100.37 6.8415 101.988 8.89731C103.639 10.9194 104.465 13.7672 104.465 17.4408V31.4945H98.1963V17.8957C98.1963 15.5029 97.8256 13.7504 97.0841 12.6382C96.3427 11.5261 95.1294 10.97 93.4443 10.97C91.7929 10.97 90.5459 11.5429 89.7034 12.6888C88.8608 13.8009 88.4396 15.3849 88.4396 17.4408V31.4945H82.171V17.8957C82.171 15.5029 81.7834 13.7504 81.0083 12.6382C80.2331 11.5261 79.003 10.97 77.3179 10.97C75.3295 10.97 73.695 11.6946 72.4143 13.1438V31.4945H66.1457V6.21801H71.5043L71.7066 8.24013C73.9983 6.62243 76.4754 5.81359 79.1378 5.81359C82.3732 5.81359 84.7829 6.9763 86.3669 9.30174C87.2432 8.18957 88.389 7.33017 89.8045 6.72354C91.22 6.1169 92.7871 5.81359 94.5059 5.81359Z" fill="url(#paint3_linear_2359_140)"/>
<path d="M108.141 24.6194H114.713V31.4946H108.141V24.6194Z" fill="#3BB273"/>
<defs>
<linearGradient id="paint0_linear_2359_140" x1="0" y1="0" x2="17.1139" y2="63.8131" gradientUnits="userSpaceOnUse">
<stop stop-color="#FFAD81"/>
<stop offset="1" stop-color="#F75C03"/>
</linearGradient>
<linearGradient id="paint1_linear_2359_140" x1="0" y1="0" x2="17.1139" y2="63.8131" gradientUnits="userSpaceOnUse">
<stop stop-color="#FFAD81"/>
<stop offset="1" stop-color="#F75C03"/>
</linearGradient>
<linearGradient id="paint2_linear_2359_140" x1="0" y1="0" x2="17.1139" y2="63.8131" gradientUnits="userSpaceOnUse">
<stop stop-color="#FFAD81"/>
<stop offset="1" stop-color="#F75C03"/>
</linearGradient>
<linearGradient id="paint3_linear_2359_140" x1="0" y1="0" x2="17.1139" y2="63.8131" gradientUnits="userSpaceOnUse">
<stop stop-color="#FFAD81"/>
<stop offset="1" stop-color="#F75C03"/>
</linearGradient>
</defs>
</svg>
