<svg width="40" height="40" viewBox="0 0 40 40" fill="none" xmlns="http://www.w3.org/2000/svg">
<circle opacity="0.5" cx="20" cy="20" r="19.5" fill="white" stroke="#BBC8D4"/>
<g clip-path="url(#clip0_1708_2132)">
<path d="M31.2976 12.9005C31.1456 12.7343 30.901 12.6911 30.7013 12.7952C30.4961 12.8884 30.2837 12.9652 30.0663 13.0247C30.4054 12.5907 30.6615 12.0978 30.8215 11.5708C30.892 11.3056 30.7342 11.0334 30.4689 10.9629C30.3273 10.9253 30.1763 10.9521 30.0563 11.0361C29.3008 11.445 28.4977 11.7591 27.6653 11.9713C25.9515 10.3538 23.3411 10.1522 21.3993 11.4873C19.9035 12.4987 19.08 14.2466 19.2527 16.0439C16.0103 15.7676 13.027 14.1609 11.0121 11.6056C10.9085 11.4804 10.7519 11.4114 10.5897 11.4198C10.4251 11.4296 10.2763 11.5205 10.1922 11.6622C9.50831 12.7801 9.31018 14.1286 9.64359 15.3959C9.81455 16.0471 10.1076 16.6599 10.5072 17.2017C10.3272 17.1136 10.1578 17.0052 10.0024 16.8787C9.78926 16.7058 9.47635 16.7385 9.30343 16.9516C9.23169 17.04 9.19246 17.1504 9.19242 17.2643C9.22195 19.1029 10.2315 20.7856 11.8399 21.6768C11.6229 21.6502 11.4087 21.6043 11.1999 21.5397C10.9371 21.4606 10.66 21.6096 10.5809 21.8724C10.5464 21.987 10.5545 22.1103 10.6036 22.2195C11.3017 23.7832 12.6973 24.9253 14.3681 25.3002C12.7762 26.1984 10.9431 26.5758 9.12585 26.3795C8.89022 26.3494 8.66699 26.4927 8.59613 26.7194C8.52309 26.9443 8.61868 27.1896 8.82472 27.3057C11.0498 28.6278 13.5811 29.3471 16.1689 29.3927C18.6516 29.3836 21.0764 28.6421 23.1395 27.261C27.0779 24.6473 29.5326 19.9546 29.1908 15.7558C30.0329 15.1324 30.7634 14.371 31.3513 13.5038C31.4721 13.3137 31.4501 13.0662 31.2976 12.9005Z" fill="#1DA1F2"/>
</g>
<defs>
<clipPath id="clip0_1708_2132">
<rect width="22.8571" height="22.8571" fill="white" transform="translate(8.57162 8.57129)"/>
</clipPath>
</defs>
</svg>
