<svg width="40" height="40" viewBox="0 0 40 40" fill="none" xmlns="http://www.w3.org/2000/svg">
<circle opacity="0.5" cx="20" cy="20" r="19.5" fill="white" stroke="#BBC8D4"/>
<g clip-path="url(#clip0_1708_2123)">
<path d="M19.9939 8.57728C13.6858 8.57861 8.57318 13.6934 8.57451 20.0015C8.57496 22.1858 9.20178 24.3242 10.3805 26.1631L8.60352 30.7737C8.50888 31.0189 8.63095 31.2944 8.87617 31.389C8.931 31.4102 8.98923 31.421 9.04798 31.4209C9.10251 31.4212 9.15663 31.4119 9.20789 31.3933L13.967 29.6943C19.3215 33.0292 26.3656 31.3919 29.7005 26.0373C33.0353 20.6828 31.398 13.6387 26.0435 10.3039C24.2284 9.1734 22.1323 8.57518 19.9939 8.57728Z" fill="#48A91F"/>
<path d="M25.4393 21.9513C25.4393 21.9513 24.2733 21.3802 23.5432 20.9995C22.7171 20.574 21.7462 21.3707 21.2894 21.8237C20.5783 21.5506 19.9289 21.1384 19.3791 20.6111C18.8517 20.0614 18.4395 19.412 18.1664 18.7008C18.6195 18.243 19.4143 17.2731 18.9907 16.4469C18.6147 15.7159 18.0389 14.5509 18.0389 14.55C17.9581 14.3896 17.794 14.2884 17.6144 14.2882H16.6626C15.2764 14.5276 14.2686 15.7371 14.2831 17.1437C14.2831 18.638 16.0715 21.5087 17.2775 22.7156C18.4835 23.9225 21.3541 25.71 22.8494 25.71C24.256 25.7245 25.4655 24.7166 25.7049 23.3305V22.3787C25.705 22.1972 25.602 22.0314 25.4393 21.9513Z" fill="#E9E0F1"/>
</g>
<defs>
<clipPath id="clip0_1708_2123">
<rect width="22.8571" height="22.8571" fill="white" transform="translate(8.57162 8.57129)"/>
</clipPath>
</defs>
</svg>
